<?xml version="1.0" standalone="no"?>
<!DOCTYPE svg PUBLIC "-//W3C//DTD SVG 20010904//EN"
 "http://www.w3.org/TR/2001/REC-SVG-20010904/DTD/svg10.dtd">
<svg version="1.0" xmlns="http://www.w3.org/2000/svg"
 width="360.000000pt" height="360.000000pt" viewBox="0 0 360.000000 360.000000"
 preserveAspectRatio="xMidYMid meet">

<g transform="translate(0.000000,360.000000) scale(0.100000,-0.100000)"
fill="#000000" stroke="none">
<path d="M1688 3020 c-72 -12 -145 -38 -233 -83 -114 -58 -246 -191 -301 -302
-22 -44 -43 -90 -46 -103 -6 -22 -7 -22 -222 -22 l-216 0 0 -190 0 -190 1135
0 1135 0 0 190 0 190 -214 0 -213 0 -22 58 c-66 182 -243 349 -440 418 -112
39 -254 52 -363 34z m-124 -259 l27 -28 -55 -82 c-31 -45 -58 -92 -62 -105 -4
-19 -14 -24 -48 -28 -23 -3 -56 -3 -73 -1 l-31 5 15 36 c38 91 152 232 188
232 6 0 24 -13 39 -29z m1256 -426 l0 -55 -1017 2 -1018 3 -3 53 -3 52 1020 0
1021 0 0 -55z"/>
<path d="M734 2032 c-18 -12 -25 -44 -13 -58 16 -19 2138 -21 2157 -2 16 16
15 33 -4 52 -14 14 -125 16 -1072 16 -581 0 -1062 -4 -1068 -8z"/>
<path d="M744 1905 c-4 -8 -4 -21 -1 -29 7 -18 92 -28 172 -20 63 7 65 7 65
35 l0 29 -115 0 c-94 0 -117 -3 -121 -15z"/>
<path d="M1017 1913 c-4 -3 -7 -16 -7 -29 0 -20 7 -23 60 -29 33 -4 96 -4 140
0 80 7 80 7 80 36 l0 29 -133 0 c-74 0 -137 -3 -140 -7z"/>
<path d="M1332 1893 c3 -27 6 -28 78 -35 41 -5 105 -5 143 -2 66 6 67 6 67 35
l0 29 -146 0 -145 0 3 -27z"/>
<path d="M1667 1914 c-4 -4 -7 -17 -7 -29 0 -29 30 -34 170 -29 125 5 132 7
128 36 -3 22 -6 23 -144 26 -77 1 -143 -1 -147 -4z"/>
<path d="M1997 1913 c-4 -3 -7 -16 -7 -28 0 -22 5 -23 103 -28 128 -8 190 1
195 27 2 10 -2 22 -10 27 -15 10 -272 12 -281 2z"/>
<path d="M2324 1905 c-12 -31 4 -43 70 -50 37 -4 100 -4 142 0 74 7 75 7 72
33 l-3 27 -138 3 c-116 2 -138 0 -143 -13z"/>
<path d="M2651 1902 c-5 -10 -6 -23 -3 -29 10 -16 120 -27 177 -19 43 7 46 9
43 34 l-3 27 -102 3 c-90 2 -103 1 -112 -16z"/>
<path d="M810 1431 l0 -391 55 0 55 0 -2 388 -3 387 -52 3 -53 3 0 -390z"/>
<path d="M1050 1430 l0 -390 100 0 100 0 0 390 0 390 -100 0 -100 0 0 -390z"/>
<path d="M1380 1429 l0 -391 23 6 c12 3 42 6 67 6 l45 0 0 89 c0 86 1 91 30
121 l30 31 0 262 0 262 -97 3 -98 3 0 -392z"/>
<path d="M1700 1550 l0 -270 105 0 105 0 0 270 0 270 -105 0 -105 0 0 -270z"/>
<path d="M2030 1552 l0 -269 25 -23 c23 -22 25 -30 25 -116 0 -106 -1 -104 91
-104 l59 0 0 390 0 390 -100 0 -100 0 0 -268z"/>
<path d="M2360 1430 l0 -391 103 3 102 3 0 385 0 385 -102 3 -103 3 0 -391z"/>
<path d="M2690 1430 l0 -390 55 0 55 0 0 390 0 390 -55 0 -55 0 0 -390z"/>
<path d="M1753 1163 l-133 -4 0 -114 0 -115 180 0 181 0 -3 118 -3 117 -45 1
c-25 0 -105 -1 -177 -3z"/>
<path d="M2143 990 c-25 -10 -30 -39 -11 -58 17 -17 719 -17 736 0 16 16 15
33 -4 52 -13 14 -59 16 -357 15 -188 0 -352 -4 -364 -9z"/>
<path d="M735 972 c-3 -11 -3 -27 1 -36 6 -15 39 -16 368 -14 l361 3 0 30 0
30 -362 3 c-346 2 -362 1 -368 -16z"/>
<path d="M1413 882 l-822 -2 -3 -83 -3 -82 -32 -3 -33 -3 0 -65 0 -64 1275 0
1275 0 0 64 0 65 -32 3 -33 3 -3 83 -3 82 -369 0 c-202 0 -374 1 -382 3 -7 1
-383 1 -835 -1z m1487 -122 l0 -40 -1100 0 -1100 0 0 40 0 40 1100 0 1100 0 0
-40z"/>
</g>
</svg>
